<?xml version="1.0" encoding="utf-8"?>
<!-- Generator: Adobe Illustrator 21.0.0, SVG Export Plug-In . SVG Version: 6.00 Build 0)  -->
<svg version="1.1" id="ORION" xmlns="http://www.w3.org/2000/svg" xmlns:xlink="http://www.w3.org/1999/xlink" x="0px" y="0px"
	 viewBox="0 0 496.9 83.4" style="enable-background:new 0 0 496.9 83.4;" xml:space="preserve">
<style type="text/css">
	.st0{fill:#2F353E;}
	.st1{fill:#84BC44;}
</style>
<g>
	<path class="st0" d="M39.8,1.9c5.5,0,10.6,1,15.4,3.1c4.8,2.1,9,4.9,12.7,8.5c3.6,3.6,6.5,7.9,8.6,12.7c2.1,4.8,3.1,10,3.1,15.5
		c0,5.5-1,10.7-3.1,15.5c-2.1,4.8-4.9,9-8.6,12.6c-3.6,3.6-7.8,6.4-12.7,8.4c-4.8,2.1-10,3.1-15.4,3.1s-10.6-1-15.4-3.1
		c-4.8-2.1-9-4.9-12.7-8.4C8.1,66.2,5.2,62,3.1,57.2C1,52.4,0,47.2,0,41.7c0-5.5,1-10.6,3.1-15.5c2.1-4.8,4.9-9,8.6-12.7
		C15.3,10,19.5,7.1,24.4,5C29.2,3,34.3,1.9,39.8,1.9z M39.8,9.9c-4.4,0-8.5,0.8-12.3,2.5c-3.8,1.7-7.1,3.9-9.9,6.8
		c-2.8,2.9-5,6.3-6.6,10.1s-2.4,8-2.4,12.3c0,4.3,0.8,8.4,2.4,12.3c1.6,3.8,3.8,7.2,6.7,10.1c2.8,2.9,6.2,5.2,10,6.9
		c3.8,1.7,7.9,2.5,12.2,2.5c4.3,0,8.4-0.8,12.2-2.5c3.8-1.7,7.1-4,10-6.9c2.8-2.9,5.1-6.2,6.7-10.1c1.6-3.8,2.4-7.9,2.4-12.3
		c0-4.3-0.8-8.4-2.4-12.3s-3.8-7.2-6.6-10.1c-2.8-2.9-6.1-5.2-9.9-6.8C48.3,10.7,44.2,9.9,39.8,9.9z"/>
	<path class="st0" d="M125,80h-8.5V3.3h11c3.6,0,7.1,0.3,10.5,0.9c3.3,0.6,6.3,1.6,8.9,3.2c2.6,1.6,4.7,3.7,6.2,6.5
		c1.6,2.7,2.3,6.3,2.3,10.6c0,6-1.7,10.9-5.1,14.7c-3.4,3.8-8.1,6-14,6.5L160.6,80h-10.4l-23.1-33.7H125V80z M125,38.8h2.6
		c2.4,0,4.8-0.2,7.1-0.5c2.3-0.3,4.4-0.9,6.2-1.9c1.8-1,3.3-2.4,4.4-4.2c1.1-1.8,1.7-4.2,1.7-7.2c0-3.1-0.5-5.6-1.6-7.5
		c-1.1-1.9-2.5-3.3-4.3-4.2c-1.8-0.9-3.8-1.5-6.2-1.8c-2.3-0.3-4.8-0.4-7.3-0.4H125V38.8z"/>
	<path class="st0" d="M205.4,80h-8.5V3.3h8.5V80z"/>
	<path class="st0" d="M282.2,1.9c5.5,0,10.6,1,15.4,3.1c4.8,2.1,9,4.9,12.7,8.5c3.6,3.6,6.5,7.9,8.6,12.7c2.1,4.8,3.1,10,3.1,15.5
		c0,5.5-1,10.7-3.1,15.5c-2.1,4.8-4.9,9-8.6,12.6c-3.6,3.6-7.8,6.4-12.7,8.4c-4.8,2.1-10,3.1-15.4,3.1s-10.6-1-15.4-3.1
		c-4.8-2.1-9-4.9-12.7-8.4c-3.6-3.6-6.5-7.7-8.6-12.6c-2.1-4.8-3.1-10-3.1-15.5c0-5.5,1-10.6,3.1-15.5c2.1-4.8,4.9-9,8.6-12.7
		c3.6-3.6,7.8-6.5,12.7-8.5C271.6,3,276.7,1.9,282.2,1.9z M282.2,9.9c-4.4,0-8.5,0.8-12.3,2.5c-3.8,1.7-7.1,3.9-9.9,6.8
		c-2.8,2.9-5,6.3-6.6,10.1c-1.6,3.9-2.4,8-2.4,12.3c0,4.3,0.8,8.4,2.4,12.3c1.6,3.8,3.8,7.2,6.7,10.1c2.8,2.9,6.2,5.2,10,6.9
		c3.8,1.7,7.9,2.5,12.2,2.5c4.3,0,8.4-0.8,12.2-2.5c3.8-1.7,7.1-4,10-6.9c2.8-2.9,5.1-6.2,6.7-10.1c1.6-3.8,2.4-7.9,2.4-12.3
		c0-4.3-0.8-8.4-2.4-12.3c-1.6-3.9-3.8-7.2-6.6-10.1c-2.8-2.9-6.1-5.2-9.9-6.8C290.7,10.7,286.6,9.9,282.2,9.9z"/>
	<path class="st0" d="M359.4,0l59.6,62.7V3.3h8.5v80.2l-59.6-62.6V80h-8.5V0z"/>
</g>
<g>
	<path class="st1" d="M450.1,34.1V3.9h4.5c2,0,3.6,0.2,4.8,0.5c1.2,0.3,2.2,0.8,3.1,1.6c0.8,0.8,1.5,1.7,2,2.9
		c0.5,1.2,0.8,2.3,0.8,3.5c0,2.2-0.8,4-2.5,5.5c1.6,0.5,2.9,1.5,3.8,2.9c0.9,1.4,1.4,2.9,1.4,4.7c0,2.4-0.8,4.3-2.5,6
		c-1,1-2.1,1.7-3.4,2.1c-1.4,0.4-3.1,0.6-5.1,0.6H450.1z M454.6,16.9h1.4c1.7,0,2.9-0.4,3.7-1.1c0.8-0.7,1.2-1.9,1.2-3.3
		c0-1.4-0.4-2.5-1.2-3.2c-0.8-0.7-2-1.1-3.5-1.1h-1.6V16.9z M454.6,29.8h2.8c2.1,0,3.6-0.4,4.5-1.2c1-0.9,1.5-2,1.5-3.3
		c0-1.3-0.5-2.4-1.5-3.3c-1-0.9-2.6-1.3-5.1-1.3h-2.3V29.8z"/>
	<path class="st1" d="M484.3,21.8v12.2h-4.6V3.9h5.2c2.5,0,4.4,0.2,5.7,0.5c1.3,0.4,2.4,1,3.4,2c1.7,1.7,2.6,3.8,2.6,6.4
		c0,2.8-0.9,4.9-2.8,6.6c-1.8,1.6-4.3,2.4-7.5,2.4H484.3z M484.3,17.6h1.7c4.2,0,6.3-1.6,6.3-4.8c0-3.1-2.2-4.7-6.5-4.7h-1.5V17.6z"
		/>
</g>
</svg>
